<svg viewBox="0.00 0.00 192.00 178.00" version="1.1" xmlns="http://www.w3.org/2000/svg">
<path d="M 47.14 0.00
  L 56.93 0.00
  C 74.95 1.52 91.51 11.31 94.89 30.28
  Q 95.13 31.64 95.49 33.02
  Q 95.71 33.87 95.88 33.01
  C 97.54 24.57 99.92 17.85 106.65 11.39
  C 114.30 4.05 123.87 1.70 134.88 0.00
  L 144.46 0.00
  C 159.69 1.48 173.96 7.71 183.65 19.87
  A 0.80 0.79 -37.2 0 1 183.49 21.01
  L 97.11 83.82
  Q 96.65 84.16 96.34 83.68
  L 43.30 1.18
  Q 42.99 0.69 43.56 0.60
  L 47.14 0.00
  Z" fill="#d0ef8e"></path>
<path d="M 0.00 50.15
  L 0.00 40.52
  C 2.29 20.52 16.79 7.13 35.60 2.16
  Q 36.07 2.04 36.32 2.44
  Q 63.40 44.61 90.54 86.75
  Q 92.61 89.95 93.74 93.58
  Q 104.51 127.95 115.06 162.39
  Q 115.24 162.96 114.76 163.32
  L 96.31 177.44
  Q 95.83 177.81 95.33 177.45
  C 54.46 147.44 5.37 104.36 0.00 50.15
  Z" fill="#a5cc50"></path>
<path d="M 175.34 97.37
  C 161.29 120.61 141.84 140.87 120.98 158.05
  Q 120.69 158.29 120.58 157.92
  L 99.70 90.47
  A 0.54 0.53 -27.0 0 1 99.90 89.87
  L 187.02 26.54
  A 0.53 0.52 60.3 0 1 187.81 26.76
  C 197.48 49.08 187.14 77.85 175.34 97.37
  Z" fill="#646642"></path>
</svg>
