<svg viewBox="0.00 0.00 32.00 32.00" version="1.1" xmlns="http://www.w3.org/2000/svg">
<g stroke-linecap="butt" fill="none" stroke-width="2.00">
<path d="M 16.55 12.50
  L 18.68 15.01
  A 0.76 0.76 0.0 0 1 18.23 16.25
  Q 16.86 16.48 16.00 17.45
  Q 15.51 18.02 15.99 18.59
  L 17.70 20.64
  Q 18.07 21.08 18.60 20.86
  C 25.99 17.80 24.80 7.59 16.71 7.07
  Q 13.97 6.89 11.51 7.10
  Q 9.50 7.26 9.50 9.28
  L 9.50 15.97
  Q 9.50 16.48 9.98 16.32
  Q 13.36 15.15 15.38 12.53
  Q 15.95 11.79 16.55 12.50" stroke="#8d8d8d"></path>
<path d="M 12.8562 16.7229
  A 2.04 0.51 -28.3 0 0 10.8182 17.2410
  A 2.04 0.51 -28.3 0 0 9.2638 18.6571
  A 2.04 0.51 -28.3 0 0 11.3018 18.1390
  A 2.04 0.51 -28.3 0 0 12.8562 16.7229" stroke="#8d8d8d"></path>
<path d="M 12.2520 19.3649
  A 1.68 0.48 -30.2 0 0 10.5586 19.7951
  A 1.68 0.48 -30.2 0 0 9.3480 21.0551
  A 1.68 0.48 -30.2 0 0 11.0414 20.6249
  A 1.68 0.48 -30.2 0 0 12.2520 19.3649" stroke="#8d8d8d"></path>
<path d="M 12.73 25.64
  L 12.08 21.88
  A 0.24 0.24 0.0 0 0 11.81 21.68
  L 11.61 21.72
  A 2.48 2.06 -9.8 0 0 9.52 24.17
  L 9.55 24.35
  A 2.48 2.06 -9.8 0 0 12.34 25.96
  L 12.54 25.92
  A 0.24 0.24 0.0 0 0 12.73 25.64" stroke="#8d8d8d"></path>
</g>
<path d="M 0.00 0.00
  L 32.00 0.00
  L 32.00 32.00
  L 0.00 32.00
  L 0.00 0.00
  Z
  M 16.55 12.50
  L 18.68 15.01
  A 0.76 0.76 0.0 0 1 18.23 16.25
  Q 16.86 16.48 16.00 17.45
  Q 15.51 18.02 15.99 18.59
  L 17.70 20.64
  Q 18.07 21.08 18.60 20.86
  C 25.99 17.80 24.80 7.59 16.71 7.07
  Q 13.97 6.89 11.51 7.10
  Q 9.50 7.26 9.50 9.28
  L 9.50 15.97
  Q 9.50 16.48 9.98 16.32
  Q 13.36 15.15 15.38 12.53
  Q 15.95 11.79 16.55 12.50
  Z
  M 12.8562 16.7229
  A 2.04 0.51 -28.3 0 0 10.8182 17.2410
  A 2.04 0.51 -28.3 0 0 9.2638 18.6571
  A 2.04 0.51 -28.3 0 0 11.3018 18.1390
  A 2.04 0.51 -28.3 0 0 12.8562 16.7229
  Z
  M 12.2520 19.3649
  A 1.68 0.48 -30.2 0 0 10.5586 19.7951
  A 1.68 0.48 -30.2 0 0 9.3480 21.0551
  A 1.68 0.48 -30.2 0 0 11.0414 20.6249
  A 1.68 0.48 -30.2 0 0 12.2520 19.3649
  Z
  M 12.73 25.64
  L 12.08 21.88
  A 0.24 0.24 0.0 0 0 11.81 21.68
  L 11.61 21.72
  A 2.48 2.06 -9.8 0 0 9.52 24.17
  L 9.55 24.35
  A 2.48 2.06 -9.8 0 0 12.34 25.96
  L 12.54 25.92
  A 0.24 0.24 0.0 0 0 12.73 25.64
  Z" fill="#1b1b1b"></path>
<path d="M 16.55 12.50
  Q 15.95 11.79 15.38 12.53
  Q 13.36 15.15 9.98 16.32
  Q 9.50 16.48 9.50 15.97
  L 9.50 9.28
  Q 9.50 7.26 11.51 7.10
  Q 13.97 6.89 16.71 7.07
  C 24.80 7.59 25.99 17.80 18.60 20.86
  Q 18.07 21.08 17.70 20.64
  L 15.99 18.59
  Q 15.51 18.02 16.00 17.45
  Q 16.86 16.48 18.23 16.25
  A 0.76 0.76 0.0 0 0 18.68 15.01
  L 16.55 12.50
  Z" fill="#ffffff"></path>
<ellipse ry="0.51" rx="2.04" transform="translate(11.06,17.69) rotate(-28.3)" cy="0.00" cx="0.00" fill="#ffffff"></ellipse>
<ellipse ry="0.48" rx="1.68" transform="translate(10.80,20.21) rotate(-30.2)" cy="0.00" cx="0.00" fill="#ffffff"></ellipse>
<path d="M 12.73 25.64
  A 0.24 0.24 0.0 0 1 12.54 25.92
  L 12.34 25.96
  A 2.48 2.06 -9.8 0 1 9.55 24.35
  L 9.52 24.17
  A 2.48 2.06 -9.8 0 1 11.61 21.72
  L 11.81 21.68
  A 0.24 0.24 0.0 0 1 12.08 21.88
  L 12.73 25.64
  Z" fill="#ffffff"></path>
</svg>
