<svg viewBox="0.00 0.00 96.00 96.00" version="1.1" xmlns="http://www.w3.org/2000/svg">
<g stroke-linecap="butt" fill="none" stroke-width="2.00">
<path d="M 2.55 0.00
  Q 0.66 0.65 0.00 2.44" stroke-opacity="0.514" stroke="#000000"></path>
<path d="M 93.59 0.00
  Q 95.45 0.73 96.00 2.51" stroke-opacity="0.514" stroke="#000000"></path>
<path d="M 96.00 93.49
  Q 95.41 95.41 93.42 96.00" stroke-opacity="0.514" stroke="#000000"></path>
<path d="M 2.26 96.00
  Q 0.65 95.21 0.00 93.62" stroke-opacity="0.514" stroke="#000000"></path>
<path d="M 22.22 23.48
  A 0.48 0.48 0.0 0 0 21.74 23.00
  L 12.48 23.00
  A 0.48 0.48 0.0 0 0 12.00 23.48
  L 12.00 70.52
  A 0.48 0.48 0.0 0 0 12.48 71.00
  L 21.74 71.00
  A 0.48 0.48 0.0 0 0 22.22 70.52
  L 22.22 23.48" stroke="#808080"></path>
<path d="M 62.98 42.55
  L 53.03 42.54
  Q 52.48 42.54 52.19 42.09
  L 40.49 23.62
  Q 40.10 23.01 39.38 23.01
  L 32.53 23.00
  Q 32.03 23.00 31.94 23.49
  Q 31.26 26.99 32.55 28.96
  Q 38.07 37.44 43.50 46.03
  Q 43.78 46.47 43.50 46.90
  Q 37.58 56.05 31.63 65.19
  Q 30.47 66.98 31.16 70.50
  Q 31.26 71.00 31.77 71.00
  L 39.47 71.00
  A 0.95 0.95 0.0 0 0 40.28 70.55
  L 51.92 51.92
  A 0.99 0.99 0.0 0 1 52.76 51.45
  L 63.24 51.45
  Q 63.79 51.45 64.08 51.92
  L 75.71 70.55
  A 0.98 0.97 73.4 0 0 76.53 71.00
  L 84.20 70.99
  Q 84.70 70.99 84.82 70.50
  Q 85.60 67.07 84.23 64.97
  Q 78.37 55.98 72.50 46.89
  Q 72.22 46.46 72.49 46.03
  Q 78.00 37.30 83.67 28.64
  Q 84.75 26.99 84.07 23.51
  Q 83.97 23.01 83.46 23.01
  L 76.29 23.01
  A 0.73 0.71 15.8 0 0 75.68 23.34
  L 63.81 42.09
  Q 63.52 42.55 62.98 42.55" stroke="#808080"></path>
</g>
<path d="M 0.00 0.00
  L 2.55 0.00
  Q 0.66 0.65 0.00 2.44
  L 0.00 0.00
  Z" fill-opacity="0.027" fill="#000000"></path>
<path d="M 2.55 0.00
  L 93.59 0.00
  Q 95.45 0.73 96.00 2.51
  L 96.00 93.49
  Q 95.41 95.41 93.42 96.00
  L 2.26 96.00
  Q 0.65 95.21 0.00 93.62
  L 0.00 2.44
  Q 0.66 0.65 2.55 0.00
  Z
  M 22.22 23.48
  A 0.48 0.48 0.0 0 0 21.74 23.00
  L 12.48 23.00
  A 0.48 0.48 0.0 0 0 12.00 23.48
  L 12.00 70.52
  A 0.48 0.48 0.0 0 0 12.48 71.00
  L 21.74 71.00
  A 0.48 0.48 0.0 0 0 22.22 70.52
  L 22.22 23.48
  Z
  M 62.98 42.55
  L 53.03 42.54
  Q 52.48 42.54 52.19 42.09
  L 40.49 23.62
  Q 40.10 23.01 39.38 23.01
  L 32.53 23.00
  Q 32.03 23.00 31.94 23.49
  Q 31.26 26.99 32.55 28.96
  Q 38.07 37.44 43.50 46.03
  Q 43.78 46.47 43.50 46.90
  Q 37.58 56.05 31.63 65.19
  Q 30.47 66.98 31.16 70.50
  Q 31.26 71.00 31.77 71.00
  L 39.47 71.00
  A 0.95 0.95 0.0 0 0 40.28 70.55
  L 51.92 51.92
  A 0.99 0.99 0.0 0 1 52.76 51.45
  L 63.24 51.45
  Q 63.79 51.45 64.08 51.92
  L 75.71 70.55
  A 0.98 0.97 73.4 0 0 76.53 71.00
  L 84.20 70.99
  Q 84.70 70.99 84.82 70.50
  Q 85.60 67.07 84.23 64.97
  Q 78.37 55.98 72.50 46.89
  Q 72.22 46.46 72.49 46.03
  Q 78.00 37.30 83.67 28.64
  Q 84.75 26.99 84.07 23.51
  Q 83.97 23.01 83.46 23.01
  L 76.29 23.01
  A 0.73 0.71 15.8 0 0 75.68 23.34
  L 63.81 42.09
  Q 63.52 42.55 62.98 42.55
  Z" fill="#000000"></path>
<path d="M 93.59 0.00
  L 96.00 0.00
  L 96.00 2.51
  Q 95.45 0.73 93.59 0.00
  Z" fill-opacity="0.027" fill="#000000"></path>
<rect rx="0.48" height="48.00" width="10.22" y="23.00" x="12.00" fill="#ffffff"></rect>
<path d="M 63.81 42.09
  L 75.68 23.34
  A 0.73 0.71 15.8 0 1 76.29 23.01
  L 83.46 23.01
  Q 83.97 23.01 84.07 23.51
  Q 84.75 26.99 83.67 28.64
  Q 78.00 37.30 72.49 46.03
  Q 72.22 46.46 72.50 46.89
  Q 78.37 55.98 84.23 64.97
  Q 85.60 67.07 84.82 70.50
  Q 84.70 70.99 84.20 70.99
  L 76.53 71.00
  A 0.98 0.97 73.4 0 1 75.71 70.55
  L 64.08 51.92
  Q 63.79 51.45 63.24 51.45
  L 52.76 51.45
  A 0.99 0.99 0.0 0 0 51.92 51.92
  L 40.28 70.55
  A 0.95 0.95 0.0 0 1 39.47 71.00
  L 31.77 71.00
  Q 31.26 71.00 31.16 70.50
  Q 30.47 66.98 31.63 65.19
  Q 37.58 56.05 43.50 46.90
  Q 43.78 46.47 43.50 46.03
  Q 38.07 37.44 32.55 28.96
  Q 31.26 26.99 31.94 23.49
  Q 32.03 23.00 32.53 23.00
  L 39.38 23.01
  Q 40.10 23.01 40.49 23.62
  L 52.19 42.09
  Q 52.48 42.54 53.03 42.54
  L 62.98 42.55
  Q 63.52 42.55 63.81 42.09
  Z" fill="#ffffff"></path>
<path d="M 96.00 93.49
  L 96.00 96.00
  L 93.42 96.00
  Q 95.41 95.41 96.00 93.49
  Z" fill-opacity="0.027" fill="#000000"></path>
<path d="M 0.00 93.62
  Q 0.65 95.21 2.26 96.00
  L 0.00 96.00
  L 0.00 93.62
  Z" fill-opacity="0.027" fill="#000000"></path>
</svg>
