<svg viewBox="0.00 0.00 512.00 512.00" version="1.1" xmlns="http://www.w3.org/2000/svg">
<path d="M 133.05 0.00
  L 184.12 0.00
  Q 184.15 90.54 184.10 181.08
  Q 184.10 186.36 182.88 189.74
  C 174.68 212.43 142.17 212.64 134.44 189.22
  Q 132.99 184.80 132.98 175.11
  Q 132.97 87.55 133.05 0.00
  Z" fill="#f04140"></path>
<path d="M 230.30 0.00
  L 281.70 0.00
  Q 281.67 198.68 281.72 397.36
  Q 281.72 407.87 280.23 412.48
  C 272.79 435.60 239.27 435.80 231.76 412.79
  Q 230.30 408.32 230.29 395.05
  Q 230.26 197.52 230.30 0.00
  Z" fill="#eab20d"></path>
<path d="M 327.88 0.00
  L 378.98 0.00
  Q 379.01 149.11 379.00 298.23
  Q 379.00 307.73 377.54 312.12
  C 374.84 320.27 367.81 327.26 358.89 329.02
  Q 356.76 329.44 354.63 329.90
  C 352.46 330.36 350.15 329.28 347.78 328.98
  C 336.97 327.62 327.87 316.02 327.87 305.25
  Q 327.87 152.62 327.88 0.00
  Z" fill="#a455f4"></path>
</svg>
