<svg viewBox="0 0 271.968 274.056" height="274.056" width="271.968" xmlns="http://www.w3.org/2000/svg">
  <g transform="matrix(-0.052, -0.999, 0.999, -0.052, 12.986, 274.056)" id="Group_132">
    <path fill="#0f172a" transform="translate(14 122.418)" d="M230.3,0,177.685,11.606c-.011.776-.037,1.568-.078,2.356a76.116,76.116,0,0,1-1.718,11.244,58.31,58.31,0,0,1-14.029,25.5,59.589,59.589,0,0,1-43.11,18.626c-1.51,0-3.036-.061-4.538-.18a57.937,57.937,0,0,1-11.207-1.819,61.011,61.011,0,0,1-26.48-14.6A61.167,61.167,0,0,1,64.269,36.624L14.687,47.561a2.572,2.572,0,0,1,.176.716c-.019.119-3.294,2.563-7.152,5.336C.112,59.042-.1,59.245.02,60.865a12.834,12.834,0,0,0,1.034,2.759A135.72,135.72,0,0,0,13.805,84.288a136.3,136.3,0,0,0,16.107,18.229c1.336,1.265,1.574,1.412,2.549,1.571a4.384,4.384,0,0,0,.709.07,2.571,2.571,0,0,0,1.219-.34c.464-.244,3.8-2.555,7.431-5.151C45.074,96.344,48.439,94,48.623,94a5.523,5.523,0,0,1,1.209.826c1.793,1.49,7.354,5.355,10.438,7.255,2.516,1.547,9.248,5.139,12.419,6.627l.862.4-1.241,8.795-.007.049c-1.235,8.747-1.235,8.747-.884,9.532.494,1.192,1.1,1.554,4.643,2.764a129.833,129.833,0,0,0,12.563,3.68l.01,0,.865.212H89.5c1.518.372,3.088.755,3.76.95a75.871,75.871,0,0,0,9.8,1.61c1.113.086,3.364.273,5.062.426,3.563.324,7.876.518,11.538.518a24.41,24.41,0,0,0,5.625-.369l.047-.019c1.4-.562,1.4-.562,2.921-9.773l.064-.388,1.441-8.763.94-.109c3.475-.4,10.949-1.664,13.788-2.326,3.506-.821,9.946-2.716,12.089-3.558a6.253,6.253,0,0,1,1.365-.4l.03,0c.121.019,2.644,3.294,5.51,7.152,5.241,7.075,5.764,7.73,7.073,7.73.131,0,.273-.007.382-.014.816-.05,2.377-.729,6.679-2.908a132.564,132.564,0,0,0,18.5-11.587,126.976,126.976,0,0,0,16.26-14.153c1.514-1.592,1.649-1.8,1.795-2.759a2.506,2.506,0,0,0-.3-1.909c-.251-.459-2.64-3.792-5.325-7.428-2.862-3.874-4.846-6.669-4.826-6.8a5.242,5.242,0,0,1,.815-1.182c1.477-1.745,5.3-7.181,7.179-10.205,1.527-2.466,5.058-9.066,6.515-12.176l.4-.844,8.918,1.362.081.012h.01c5.861.895,7.835,1.2,8.733,1.2a1.892,1.892,0,0,0,.883-.182c1.2-.469,1.553-1.062,2.721-4.528a121.838,121.838,0,0,0,3.518-12.284c.383-1.653.9-3.813,1.154-4.866a57.965,57.965,0,0,0,1.446-9.469c.073-1.119.229-3.348.354-5,.522-6.733.463-15.611-.115-16.964l-.02-.048c-.589-1.389-.589-1.389-9.935-3.037L235.985,1,230.3,0Z" id="Subtraction_2"></path>
    <g transform="translate(19.282 15.67)" id="via-transportation-inc-vector-logo">
      <path fill="#0f172a" transform="translate(-20.979 -101.038)" d="M70.8,306.959c29.2,19.9,68.1,24.5,101.3,12,37.9-13.6,66.7-49.3,72.4-89.2,1.6-11.6,3.4-25.3-5.5-34.7-10.3-12.4-31.6-11.1-40.5,2-7.5,9.5-3.6,22.5-7.7,33.2-7.3,25.3-32.6,44-59.2,42.8-25.1-.2-48.4-18.2-55.7-42.2-5.1,10.3-15.6,18-27.4,18-9.9.4-19.1-4.9-25.5-12.2C29.5,265.059,46.5,290.759,70.8,306.959Z" id="Path_47"></path>
      <path fill="#1e293b" transform="translate(-20.979 -273.814)" d="M21,386.135c.2,11.1,8.5,21.7,19.5,24.3a25.961,25.961,0,0,0,28.8-11.6c5.9-9.1,2.8-20.5,6.5-30.4,7.1-25.9,33.2-44.8,60.2-43.2,24.7.6,47.6,18.2,54.7,42,4.9-10.7,16.2-18.4,28.2-18.2,9.3-.2,17.8,4.9,24.3,11.4-5.3-20.5-15.4-39.7-30.6-54.7-12.751-12.606-46.654-31.605-78.876-31.917-34.085-.33-66.578,18.92-80.124,32.517C32.7,327.135,20.4,356.535,21,386.135Z" id="Path_48"></path>
    </g>
    <path fill="#1e293b" d="M127.814,0a26.523,26.523,0,0,0-5.656.342l-.047.019c-1.405.522-1.405.522-2.935,9.071l-.067.375-1.45,8.145-.945.1c-3.5.375-11.013,1.547-13.862,2.163-3.522.762-10,2.524-12.153,3.307a6.687,6.687,0,0,1-1.375.371H89.3c-.122-.02-2.658-3.066-5.538-6.651-5.27-6.578-5.8-7.186-7.111-7.186-.13,0-.268.006-.386.012-.819.048-2.388.679-6.714,2.7a135.332,135.332,0,0,0-18.6,10.772A125.326,125.326,0,0,0,34.608,36.7c-1.522,1.479-1.657,1.671-1.806,2.563a2.19,2.19,0,0,0,.3,1.776c.255.43,2.607,3.463,5.354,6.905,2.432,3.045,4.875,6.18,4.852,6.32a4.906,4.906,0,0,1-.82,1.1,117.4,117.4,0,0,0-7.218,9.485c-1.536,2.295-5.087,8.431-6.551,11.32l-.4.785L19.361,75.69l-.086-.013-.189-.027c-5.76-.812-7.7-1.085-8.6-1.085a2.036,2.036,0,0,0-.886.169c-1.2.436-1.561.986-2.737,4.21A108.856,108.856,0,0,0,3.328,90.363c-.342,1.371-.868,3.416-1.159,4.524a49.937,49.937,0,0,0-1.455,8.8c-.075,1.075-.235,3.159-.356,4.647-.524,6.258-.464,14.511.115,15.769l.02.045c.592,1.292.592,1.292,9.986,2.823l.4.064,8.935,1.45.125.864c.105.726.263,1.677.457,2.749l49.253-10.033a51.923,51.923,0,0,1-.081-7.083,65.9,65.9,0,0,1,1.728-10.453A53.19,53.19,0,0,1,85.4,80.826a62.306,62.306,0,0,1,43.341-17.315c1.536,0,3.071.056,4.563.166a64.435,64.435,0,0,1,37.887,15.264,58.439,58.439,0,0,1,7.143,7.407h56.064c-.325-.871-.59-1.534-.788-1.974a4.709,4.709,0,0,1-.426-1.289c.017-.11,3.31-2.381,7.191-4.96,7.638-5.047,7.854-5.236,7.731-6.742a11.455,11.455,0,0,0-1.041-2.564,124.842,124.842,0,0,0-12.819-19.21A130.57,130.57,0,0,0,218.05,32.663c-1.345-1.175-1.584-1.312-2.564-1.459a4.756,4.756,0,0,0-.712-.065,2.74,2.74,0,0,0-1.225.316c-.467.227-3.818,2.375-7.47,4.789-3.272,2.159-6.655,4.338-6.839,4.338a5.6,5.6,0,0,1-1.215-.768c-1.8-1.382-7.392-4.975-10.495-6.744-2.516-1.431-9.284-4.771-12.485-6.162l-.866-.376,1.249-8.175.005-.032c1.242-8.146,1.242-8.146.888-8.875-.5-1.109-1.106-1.445-4.667-2.57-4.634-1.468-8.293-2.459-12.63-3.42l-.916-.208-.06-.013-.02,0c-1.407-.319-3-.682-3.669-.859A82.009,82.009,0,0,0,144.5.876c-1.136-.081-3.406-.255-5.09-.4C135.83.18,131.494,0,127.814,0Z" id="Subtraction_4"></path>
  </g>
</svg>
